<svg width="24" height="24" viewBox="0 0 24 24" fill="none" xmlns="http://www.w3.org/2000/svg">
<path d="M23.0613 10.9386C23.2011 11.078 23.3121 11.2436 23.3878 11.4259C23.4635 11.6082 23.5024 11.8037 23.5024 12.0011C23.5024 12.1986 23.4635 12.394 23.3878 12.5764C23.3121 12.7587 23.2011 12.9243 23.0613 13.0636L13.0613 23.0636C12.9219 23.2035 12.7563 23.3144 12.574 23.3901C12.3917 23.4658 12.1962 23.5048 11.9988 23.5048C11.8013 23.5048 11.6059 23.4658 11.4235 23.3901C11.2412 23.3144 11.0756 23.2035 10.9363 23.0636L0.936257 13.0636C0.796727 12.9241 0.686047 12.7585 0.610534 12.5762C0.535021 12.3939 0.496155 12.1985 0.496155 12.0011C0.496155 11.8038 0.535021 11.6084 0.610534 11.4261C0.686047 11.2438 0.796727 11.0782 0.936257 10.9386C1.07579 10.7991 1.24143 10.6884 1.42374 10.6129C1.60604 10.5374 1.80143 10.4985 1.99876 10.4985C2.19608 10.4985 2.39147 10.5374 2.57378 10.6129C2.75608 10.6884 2.92173 10.7991 3.06126 10.9386L12 19.8749L20.9388 10.9349C21.0783 10.7957 21.2439 10.6853 21.4262 10.6102C21.6084 10.535 21.8037 10.4965 22.0008 10.4968C22.1979 10.4972 22.393 10.5364 22.575 10.6122C22.757 10.688 22.9222 10.7989 23.0613 10.9386ZM10.9363 13.0636C11.0756 13.2035 11.2412 13.3144 11.4235 13.3901C11.6059 13.4658 11.8013 13.5048 11.9988 13.5048C12.1962 13.5048 12.3917 13.4658 12.574 13.3901C12.7563 13.3144 12.9219 13.2035 13.0613 13.0636L23.0613 3.06364C23.2008 2.92411 23.3115 2.75846 23.387 2.57616C23.4625 2.39385 23.5014 2.19846 23.5014 2.00114C23.5014 1.80381 23.4625 1.60842 23.387 1.42612C23.3115 1.24381 23.2008 1.07817 23.0613 0.938637C22.9217 0.799107 22.7561 0.688426 22.5738 0.612914C22.3915 0.537401 22.1961 0.498535 21.9988 0.498535C21.8014 0.498535 21.606 0.537401 21.4237 0.612914C21.2414 0.688426 21.0758 0.799107 20.9363 0.938637L12 9.87489L3.06126 0.938637C2.77946 0.656844 2.39727 0.498535 1.99876 0.498535C1.60024 0.498535 1.21805 0.656844 0.936257 0.938637C0.654464 1.22043 0.496155 1.60262 0.496155 2.00114C0.496155 2.39965 0.654464 2.78184 0.936257 3.06364L10.9363 13.0636Z" fill="#E2E4E9"/>
</svg>
